# Alias OBJ Model File
# Exported from SketchUp, (c) 2000-2012 Trimble Navigation Limited
# File units = meters

mtllib tightBlockStraightSide.mtl

g Mesh1 Group1 Model

usemtl Graisse
v 0.393 0.5 -0.5
vt 3.10039 3.28084
vn 1 0 -0
v 0.393 0.5 0.5
vt -0.180446 3.28084
v 0.393 -0.5 0.5
vt -0.180446 2.96059e-016
v 0.393 -0.5 -0.5
vt 3.10039 2.96059e-016
f 1/1/1 2/2/1 3/3/1 4/4/1 

usemtl Metal
v -0.5 0.5 -0.5
vt 1.41461 -0.82021
vn 0 1 -0
v -0.5 0.5 0.5
vt 1.41461 1.89432e-015
vt 0.680063 2.56739e-015
vt 0.680063 -0.82021
f 5/5/2 6/6/2 2/7/2 1/8/2 

v -0.5 -0.5 -0.5
vt -0.410105 -0.410105
vn -1 -3.01765e-017 4.94662e-016
v -0.5 -0.5 0.5
vt 0.410105 -0.410105
vt 0.410105 0.410105
vt -0.410105 0.410105
f 7/9/3 8/10/3 6/11/3 5/12/3 

vt 0.364993 0.410105
vn 1.01051e-016 -1 1.21471e-031
vt -0.367454 0.410105
vt -0.367454 -0.410105
vt 0.364993 -0.410105
f 7/13/4 4/14/4 3/15/4 8/16/4 

vt 1.41461 -1.64277
vn 0 0 -1
vt 0.680063 -1.64277
f 7/17/5 5/5/5 1/8/5 4/18/5 

vt 0.545164 -1.64277
vn 0 0 1
vt 0.545164 -0.82021
vt -0.18938 -0.82021
vt -0.18938 -1.64277
f 3/19/6 2/20/6 6/21/6 8/22/6 

g Mesh2 Group2 Model

usemtl FrontColor
v 0.3 -0.5 0.5
vt 33.5064 0
v 0.3 0.5 0.5
vt 33.5064 39.3701
v -0.5 0.5 0.5
vt 0 39.3701
v -0.5 -0.5 0.5
vt 0 0
f 9/23/6 10/24/6 11/25/6 12/26/6 

v 0.3 -0.5 -0.5
vt 16.9291 0
v 0.3 0.5 -0.5
vt 16.9291 39.3701
f 10/25/1 9/26/1 13/27/1 14/28/1 

vt -33.5064 0
vn 0 -1 -0
v -0.5 -0.5 -0.5
vt 0 16.9291
vt -33.5064 16.9291
f 9/29/7 12/26/7 15/30/7 13/31/7 

vn -1 0 -0
v -0.5 0.5 -0.5
vt -16.9291 39.3701
vt -16.9291 0
f 12/26/8 11/25/8 16/32/8 15/33/8 

vt -8.34888e-015 1.94194e-031
vn 1.99338e-016 1 1.1471e-032
vt 33.5064 1.94194e-031
vt 33.5064 16.9291
vt -8.34888e-015 16.9291
f 11/34/9 10/35/9 14/36/9 16/37/9 

vt -33.5064 39.3701
vn -3.00003e-016 6.61087e-033 -1
vt -33.5064 -2.6027e-031
vt -1.25651e-014 -2.6027e-031
vt -1.25651e-014 39.3701
f 14/38/10 13/39/10 15/40/10 16/41/10 

